<?xml version="1.0" encoding="UTF-8" standalone="no"?>
<!DOCTYPE svg PUBLIC "-//W3C//DTD SVG 1.1//EN"
 "http://www.w3.org/Graphics/SVG/1.1/DTD/svg11.dtd">
<!-- Generated by graphviz version 2.40.1 (20161225.0304)
 -->
<!-- Title: UmlClassDiagram Pages: 1 -->
<svg width="1767pt" height="1732pt"
 viewBox="0.00 0.00 1766.88 1732.40" xmlns="http://www.w3.org/2000/svg" xmlns:xlink="http://www.w3.org/1999/xlink">
<g id="graph0" class="graph" transform="scale(1 1) rotate(0) translate(4 1728.4)">
<title>UmlClassDiagram</title>
<polygon fill="#ffffff" stroke="transparent" points="-4,4 -4,-1728.4 1762.8817,-1728.4 1762.8817,4 -4,4"/>
<!-- 6 -->
<g id="node1" class="node">
<title>6</title>
<polygon fill="#f2f2f2" stroke="#000000" points="1229.3094,-1134.9 1229.3094,-1394.1 1518.6902,-1394.1 1518.6902,-1134.9 1229.3094,-1134.9"/>
<text text-anchor="middle" x="1373.9998" y="-1377.5" font-family="Times,serif" font-size="14.00" fill="#000000">MinterRole</text>
<polyline fill="none" stroke="#000000" points="1229.3094,-1369.3 1518.6902,-1369.3 "/>
<text text-anchor="start" x="1237.3094" y="-1352.7" font-family="Times,serif" font-size="14.00" fill="#000000">Private:</text>
<text text-anchor="start" x="1237.3094" y="-1335.9" font-family="Times,serif" font-size="14.00" fill="#000000"> &#160;&#160;_minters: Roles.Role</text>
<polyline fill="none" stroke="#000000" points="1229.3094,-1327.7 1518.6902,-1327.7 "/>
<text text-anchor="start" x="1237.3094" y="-1311.1" font-family="Times,serif" font-size="14.00" fill="#000000">Internal:</text>
<text text-anchor="start" x="1237.3094" y="-1294.3" font-family="Times,serif" font-size="14.00" fill="#000000"> &#160;&#160;&#160;_addMinter(account: address)</text>
<text text-anchor="start" x="1237.3094" y="-1277.5" font-family="Times,serif" font-size="14.00" fill="#000000"> &#160;&#160;&#160;_removeMinter(account: address)</text>
<text text-anchor="start" x="1237.3094" y="-1260.7" font-family="Times,serif" font-size="14.00" fill="#000000">Public:</text>
<text text-anchor="start" x="1237.3094" y="-1243.9" font-family="Times,serif" font-size="14.00" fill="#000000"> &#160;&#160;&#160;&lt;&lt;event&gt;&gt; MinterAdded(account: address)</text>
<text text-anchor="start" x="1237.3094" y="-1227.1" font-family="Times,serif" font-size="14.00" fill="#000000"> &#160;&#160;&#160;&lt;&lt;event&gt;&gt; MinterRemoved(account: address)</text>
<text text-anchor="start" x="1237.3094" y="-1210.3" font-family="Times,serif" font-size="14.00" fill="#000000"> &#160;&#160;&#160;&lt;&lt;modifier&gt;&gt; onlyMinter()</text>
<text text-anchor="start" x="1237.3094" y="-1193.5" font-family="Times,serif" font-size="14.00" fill="#000000"> &#160;&#160;&#160;constructor()</text>
<text text-anchor="start" x="1237.3094" y="-1176.7" font-family="Times,serif" font-size="14.00" fill="#000000"> &#160;&#160;&#160;isMinter(account: address): bool</text>
<text text-anchor="start" x="1237.3094" y="-1159.9" font-family="Times,serif" font-size="14.00" fill="#000000"> &#160;&#160;&#160;addMinter(account: address)</text>
<text text-anchor="start" x="1237.3094" y="-1143.1" font-family="Times,serif" font-size="14.00" fill="#000000"> &#160;&#160;&#160;renounceMinter()</text>
</g>
<!-- 2 -->
<g id="node3" class="node">
<title>2</title>
<polygon fill="#f2f2f2" stroke="#000000" points="1125.0506,-1531.9 1125.0506,-1673.5 1282.949,-1673.5 1282.949,-1531.9 1125.0506,-1531.9"/>
<text text-anchor="middle" x="1203.9998" y="-1656.9" font-family="Times,serif" font-size="14.00" fill="#000000">Context</text>
<polyline fill="none" stroke="#000000" points="1125.0506,-1648.7 1282.949,-1648.7 "/>
<text text-anchor="middle" x="1203.9998" y="-1632.1" font-family="Times,serif" font-size="14.00" fill="#000000"> </text>
<polyline fill="none" stroke="#000000" points="1125.0506,-1623.9 1282.949,-1623.9 "/>
<text text-anchor="start" x="1133.0506" y="-1607.3" font-family="Times,serif" font-size="14.00" fill="#000000">Internal:</text>
<text text-anchor="start" x="1133.0506" y="-1590.5" font-family="Times,serif" font-size="14.00" fill="#000000"> &#160;&#160;&#160;_msgSender(): address</text>
<text text-anchor="start" x="1133.0506" y="-1573.7" font-family="Times,serif" font-size="14.00" fill="#000000"> &#160;&#160;&#160;_msgData(): bytes</text>
<text text-anchor="start" x="1133.0506" y="-1556.9" font-family="Times,serif" font-size="14.00" fill="#000000">Public:</text>
<text text-anchor="start" x="1133.0506" y="-1540.1" font-family="Times,serif" font-size="14.00" fill="#000000"> &#160;&#160;&#160;constructor()</text>
</g>
<!-- 6&#45;&gt;2 -->
<g id="edge2" class="edge">
<title>6&#45;&gt;2</title>
<path fill="none" stroke="#000000" d="M1308.7596,-1394.2897C1290.2607,-1431.0916 1270.44,-1470.5232 1253.0718,-1505.0755"/>
<polygon fill="none" stroke="#000000" points="1243.6841,-1500.3724 1239.5921,-1531.8923 1262.4471,-1509.8038 1243.6841,-1500.3724"/>
</g>
<!-- 5 -->
<g id="node6" class="node">
<title>5</title>
<polygon fill="#f2f2f2" stroke="#000000" points="1513.1179,-1531.9 1513.1179,-1673.5 1758.8817,-1673.5 1758.8817,-1531.9 1513.1179,-1531.9"/>
<text text-anchor="middle" x="1635.9998" y="-1656.9" font-family="Times,serif" font-size="14.00" fill="#000000">&lt;&lt;Library&gt;&gt;</text>
<text text-anchor="middle" x="1635.9998" y="-1640.1" font-family="Times,serif" font-size="14.00" fill="#000000">Roles</text>
<polyline fill="none" stroke="#000000" points="1513.1179,-1631.9 1758.8817,-1631.9 "/>
<text text-anchor="middle" x="1635.9998" y="-1615.3" font-family="Times,serif" font-size="14.00" fill="#000000"> </text>
<polyline fill="none" stroke="#000000" points="1513.1179,-1607.1 1758.8817,-1607.1 "/>
<text text-anchor="start" x="1521.1179" y="-1590.5" font-family="Times,serif" font-size="14.00" fill="#000000">Internal:</text>
<text text-anchor="start" x="1521.1179" y="-1573.7" font-family="Times,serif" font-size="14.00" fill="#000000"> &#160;&#160;&#160;add(role: Role, account: address)</text>
<text text-anchor="start" x="1521.1179" y="-1556.9" font-family="Times,serif" font-size="14.00" fill="#000000"> &#160;&#160;&#160;remove(role: Role, account: address)</text>
<text text-anchor="start" x="1521.1179" y="-1540.1" font-family="Times,serif" font-size="14.00" fill="#000000"> &#160;&#160;&#160;has(role: Role, account: address): bool</text>
</g>
<!-- 6&#45;&gt;5 -->
<g id="edge3" class="edge">
<title>6&#45;&gt;5</title>
<path fill="none" stroke="#000000" d="M1474.5465,-1394.2897C1508.3624,-1437.9406 1545.0443,-1485.291 1574.8854,-1523.8111"/>
<polygon fill="#000000" stroke="#000000" points="1572.2547,-1526.1304 1581.1458,-1531.8923 1577.7885,-1521.8435 1572.2547,-1526.1304"/>
</g>
<!-- 0 -->
<g id="node2" class="node">
<title>0</title>
<polygon fill="#f2f2f2" stroke="#000000" points="292.6999,-1481.5 292.6999,-1723.9 731.2997,-1723.9 731.2997,-1481.5 292.6999,-1481.5"/>
<text text-anchor="middle" x="511.9998" y="-1707.3" font-family="Times,serif" font-size="14.00" fill="#000000">&lt;&lt;Interface&gt;&gt;</text>
<text text-anchor="middle" x="511.9998" y="-1690.5" font-family="Times,serif" font-size="14.00" fill="#000000">IERC20</text>
<polyline fill="none" stroke="#000000" points="292.6999,-1682.3 731.2997,-1682.3 "/>
<text text-anchor="middle" x="511.9998" y="-1665.7" font-family="Times,serif" font-size="14.00" fill="#000000"> </text>
<polyline fill="none" stroke="#000000" points="292.6999,-1657.5 731.2997,-1657.5 "/>
<text text-anchor="start" x="300.6999" y="-1640.9" font-family="Times,serif" font-size="14.00" fill="#000000">External:</text>
<text text-anchor="start" x="300.6999" y="-1624.1" font-family="Times,serif" font-size="14.00" fill="#000000"> &#160;&#160;&#160;&#160;totalSupply(): uint256</text>
<text text-anchor="start" x="300.6999" y="-1607.3" font-family="Times,serif" font-size="14.00" fill="#000000"> &#160;&#160;&#160;&#160;balanceOf(account: address): uint256</text>
<text text-anchor="start" x="300.6999" y="-1590.5" font-family="Times,serif" font-size="14.00" fill="#000000"> &#160;&#160;&#160;&#160;transfer(recipient: address, amount: uint256): bool</text>
<text text-anchor="start" x="300.6999" y="-1573.7" font-family="Times,serif" font-size="14.00" fill="#000000"> &#160;&#160;&#160;&#160;allowance(owner: address, spender: address): uint256</text>
<text text-anchor="start" x="300.6999" y="-1556.9" font-family="Times,serif" font-size="14.00" fill="#000000"> &#160;&#160;&#160;&#160;approve(spender: address, amount: uint256): bool</text>
<text text-anchor="start" x="300.6999" y="-1540.1" font-family="Times,serif" font-size="14.00" fill="#000000"> &#160;&#160;&#160;&#160;transferFrom(sender: address, recipient: address, amount: uint256): bool</text>
<text text-anchor="start" x="300.6999" y="-1523.3" font-family="Times,serif" font-size="14.00" fill="#000000">Public:</text>
<text text-anchor="start" x="300.6999" y="-1506.5" font-family="Times,serif" font-size="14.00" fill="#000000"> &#160;&#160;&#160;&lt;&lt;event&gt;&gt; Transfer(from: address, to: address, value: uint256)</text>
<text text-anchor="start" x="300.6999" y="-1489.7" font-family="Times,serif" font-size="14.00" fill="#000000"> &#160;&#160;&#160;&lt;&lt;event&gt;&gt; Approval(owner: address, spender: address, value: uint256)</text>
</g>
<!-- 3 -->
<g id="node4" class="node">
<title>3</title>
<polygon fill="#f2f2f2" stroke="#000000" points="749.3034,-1489.9 749.3034,-1715.5 1106.6962,-1715.5 1106.6962,-1489.9 749.3034,-1489.9"/>
<text text-anchor="middle" x="927.9998" y="-1698.9" font-family="Times,serif" font-size="14.00" fill="#000000">&lt;&lt;Library&gt;&gt;</text>
<text text-anchor="middle" x="927.9998" y="-1682.1" font-family="Times,serif" font-size="14.00" fill="#000000">SafeMath</text>
<polyline fill="none" stroke="#000000" points="749.3034,-1673.9 1106.6962,-1673.9 "/>
<text text-anchor="middle" x="927.9998" y="-1657.3" font-family="Times,serif" font-size="14.00" fill="#000000"> </text>
<polyline fill="none" stroke="#000000" points="749.3034,-1649.1 1106.6962,-1649.1 "/>
<text text-anchor="start" x="757.3034" y="-1632.5" font-family="Times,serif" font-size="14.00" fill="#000000">Internal:</text>
<text text-anchor="start" x="757.3034" y="-1615.7" font-family="Times,serif" font-size="14.00" fill="#000000"> &#160;&#160;&#160;add(a: uint256, b: uint256): uint256</text>
<text text-anchor="start" x="757.3034" y="-1598.9" font-family="Times,serif" font-size="14.00" fill="#000000"> &#160;&#160;&#160;sub(a: uint256, b: uint256): uint256</text>
<text text-anchor="start" x="757.3034" y="-1582.1" font-family="Times,serif" font-size="14.00" fill="#000000"> &#160;&#160;&#160;sub(a: uint256, b: uint256, errorMessage: string): uint256</text>
<text text-anchor="start" x="757.3034" y="-1565.3" font-family="Times,serif" font-size="14.00" fill="#000000"> &#160;&#160;&#160;mul(a: uint256, b: uint256): uint256</text>
<text text-anchor="start" x="757.3034" y="-1548.5" font-family="Times,serif" font-size="14.00" fill="#000000"> &#160;&#160;&#160;div(a: uint256, b: uint256): uint256</text>
<text text-anchor="start" x="757.3034" y="-1531.7" font-family="Times,serif" font-size="14.00" fill="#000000"> &#160;&#160;&#160;div(a: uint256, b: uint256, errorMessage: string): uint256</text>
<text text-anchor="start" x="757.3034" y="-1514.9" font-family="Times,serif" font-size="14.00" fill="#000000"> &#160;&#160;&#160;mod(a: uint256, b: uint256): uint256</text>
<text text-anchor="start" x="757.3034" y="-1498.1" font-family="Times,serif" font-size="14.00" fill="#000000"> &#160;&#160;&#160;mod(a: uint256, b: uint256, errorMessage: string): uint256</text>
</g>
<!-- 4 -->
<g id="node5" class="node">
<title>4</title>
<polygon fill="#f2f2f2" stroke="#000000" points="633.4499,-1084.5 633.4499,-1444.5 1068.5497,-1444.5 1068.5497,-1084.5 633.4499,-1084.5"/>
<text text-anchor="middle" x="850.9998" y="-1427.9" font-family="Times,serif" font-size="14.00" fill="#000000">ERC20</text>
<polyline fill="none" stroke="#000000" points="633.4499,-1419.7 1068.5497,-1419.7 "/>
<text text-anchor="start" x="641.4499" y="-1403.1" font-family="Times,serif" font-size="14.00" fill="#000000">Private:</text>
<text text-anchor="start" x="641.4499" y="-1386.3" font-family="Times,serif" font-size="14.00" fill="#000000"> &#160;&#160;_balances: mapping(address=&gt;uint256)</text>
<text text-anchor="start" x="641.4499" y="-1369.5" font-family="Times,serif" font-size="14.00" fill="#000000"> &#160;&#160;_allowances: mapping(address=&gt;mapping(address=&gt;uint256))</text>
<text text-anchor="start" x="641.4499" y="-1352.7" font-family="Times,serif" font-size="14.00" fill="#000000"> &#160;&#160;_totalSupply: uint256</text>
<polyline fill="none" stroke="#000000" points="633.4499,-1344.5 1068.5497,-1344.5 "/>
<text text-anchor="start" x="641.4499" y="-1327.9" font-family="Times,serif" font-size="14.00" fill="#000000">Internal:</text>
<text text-anchor="start" x="641.4499" y="-1311.1" font-family="Times,serif" font-size="14.00" fill="#000000"> &#160;&#160;&#160;_transfer(sender: address, recipient: address, amount: uint256)</text>
<text text-anchor="start" x="641.4499" y="-1294.3" font-family="Times,serif" font-size="14.00" fill="#000000"> &#160;&#160;&#160;_mint(account: address, amount: uint256)</text>
<text text-anchor="start" x="641.4499" y="-1277.5" font-family="Times,serif" font-size="14.00" fill="#000000"> &#160;&#160;&#160;_burn(account: address, amount: uint256)</text>
<text text-anchor="start" x="641.4499" y="-1260.7" font-family="Times,serif" font-size="14.00" fill="#000000"> &#160;&#160;&#160;_approve(owner: address, spender: address, amount: uint256)</text>
<text text-anchor="start" x="641.4499" y="-1243.9" font-family="Times,serif" font-size="14.00" fill="#000000"> &#160;&#160;&#160;_burnFrom(account: address, amount: uint256)</text>
<text text-anchor="start" x="641.4499" y="-1227.1" font-family="Times,serif" font-size="14.00" fill="#000000">Public:</text>
<text text-anchor="start" x="641.4499" y="-1210.3" font-family="Times,serif" font-size="14.00" fill="#000000"> &#160;&#160;&#160;totalSupply(): uint256</text>
<text text-anchor="start" x="641.4499" y="-1193.5" font-family="Times,serif" font-size="14.00" fill="#000000"> &#160;&#160;&#160;balanceOf(account: address): uint256</text>
<text text-anchor="start" x="641.4499" y="-1176.7" font-family="Times,serif" font-size="14.00" fill="#000000"> &#160;&#160;&#160;transfer(recipient: address, amount: uint256): bool</text>
<text text-anchor="start" x="641.4499" y="-1159.9" font-family="Times,serif" font-size="14.00" fill="#000000"> &#160;&#160;&#160;allowance(owner: address, spender: address): uint256</text>
<text text-anchor="start" x="641.4499" y="-1143.1" font-family="Times,serif" font-size="14.00" fill="#000000"> &#160;&#160;&#160;approve(spender: address, amount: uint256): bool</text>
<text text-anchor="start" x="641.4499" y="-1126.3" font-family="Times,serif" font-size="14.00" fill="#000000"> &#160;&#160;&#160;transferFrom(sender: address, recipient: address, amount: uint256): bool</text>
<text text-anchor="start" x="641.4499" y="-1109.5" font-family="Times,serif" font-size="14.00" fill="#000000"> &#160;&#160;&#160;increaseAllowance(spender: address, addedValue: uint256): bool</text>
<text text-anchor="start" x="641.4499" y="-1092.7" font-family="Times,serif" font-size="14.00" fill="#000000"> &#160;&#160;&#160;decreaseAllowance(spender: address, subtractedValue: uint256): bool</text>
</g>
<!-- 4&#45;&gt;0 -->
<g id="edge5" class="edge">
<title>4&#45;&gt;0</title>
<path fill="none" stroke="#000000" stroke-dasharray="5,2" d="M670.0861,-1444.9868C665.0867,-1449.9744 660.1006,-1454.9487 655.1453,-1459.8924"/>
<polygon fill="none" stroke="#000000" points="647.4926,-1452.6952 633.6702,-1481.3168 662.3243,-1467.562 647.4926,-1452.6952"/>
</g>
<!-- 4&#45;&gt;2 -->
<g id="edge4" class="edge">
<title>4&#45;&gt;2</title>
<path fill="none" stroke="#000000" d="M1068.5689,-1434.2523C1085.1053,-1449.5415 1101.1253,-1465.2217 1115.9998,-1481 1123.8575,-1489.3351 1131.6099,-1498.3936 1139.0618,-1507.6818"/>
<polygon fill="none" stroke="#000000" points="1130.8478,-1514.2263 1157.3962,-1531.703 1147.541,-1501.485 1130.8478,-1514.2263"/>
</g>
<!-- 4&#45;&gt;3 -->
<g id="edge6" class="edge">
<title>4&#45;&gt;3</title>
<path fill="none" stroke="#000000" stroke-dasharray="5,2" d="M892.0923,-1444.9868C894.7531,-1456.6737 897.3974,-1468.2878 899.9739,-1479.6044"/>
<polygon fill="#000000" stroke="#000000" points="896.5867,-1480.4936 902.2194,-1489.4671 903.412,-1478.9396 896.5867,-1480.4936"/>
</g>
<!-- 5struct0 -->
<g id="node7" class="node">
<title>5struct0</title>
<polygon fill="#f2f2f2" stroke="#000000" points="1536.3341,-1231.3 1536.3341,-1297.7 1735.6655,-1297.7 1735.6655,-1231.3 1536.3341,-1231.3"/>
<text text-anchor="middle" x="1635.9998" y="-1281.1" font-family="Times,serif" font-size="14.00" fill="#000000">&lt;&lt;struct&gt;&gt;</text>
<text text-anchor="middle" x="1635.9998" y="-1264.3" font-family="Times,serif" font-size="14.00" fill="#000000">Role</text>
<polyline fill="none" stroke="#000000" points="1536.3341,-1256.1 1735.6655,-1256.1 "/>
<text text-anchor="start" x="1544.3341" y="-1239.5" font-family="Times,serif" font-size="14.00" fill="#000000">bearer: mapping(address=&gt;bool)</text>
</g>
<!-- 5struct0&#45;&gt;5 -->
<g id="edge1" class="edge">
<title>5struct0&#45;&gt;5</title>
<path fill="none" stroke="#000000" d="M1635.9998,-1297.8535C1635.9998,-1348.9728 1635.9998,-1448.2643 1635.9998,-1519.6557"/>
<polygon fill="#000000" stroke="#000000" points="1635.9999,-1519.7511 1639.9999,-1525.7511 1635.9998,-1531.7511 1631.9999,-1525.7511 1635.9999,-1519.7511"/>
</g>
<!-- 1 -->
<g id="node8" class="node">
<title>1</title>
<polygon fill="#f2f2f2" stroke="#000000" points="335.8353,-855.5 335.8353,-1047.5 688.1643,-1047.5 688.1643,-855.5 335.8353,-855.5"/>
<text text-anchor="middle" x="511.9998" y="-1030.9" font-family="Times,serif" font-size="14.00" fill="#000000">ERC20Detailed</text>
<polyline fill="none" stroke="#000000" points="335.8353,-1022.7 688.1643,-1022.7 "/>
<text text-anchor="start" x="343.8353" y="-1006.1" font-family="Times,serif" font-size="14.00" fill="#000000">Private:</text>
<text text-anchor="start" x="343.8353" y="-989.3" font-family="Times,serif" font-size="14.00" fill="#000000"> &#160;&#160;_name: string</text>
<text text-anchor="start" x="343.8353" y="-972.5" font-family="Times,serif" font-size="14.00" fill="#000000"> &#160;&#160;_symbol: string</text>
<text text-anchor="start" x="343.8353" y="-955.7" font-family="Times,serif" font-size="14.00" fill="#000000"> &#160;&#160;_decimals: uint8</text>
<polyline fill="none" stroke="#000000" points="335.8353,-947.5 688.1643,-947.5 "/>
<text text-anchor="start" x="343.8353" y="-930.9" font-family="Times,serif" font-size="14.00" fill="#000000">Public:</text>
<text text-anchor="start" x="343.8353" y="-914.1" font-family="Times,serif" font-size="14.00" fill="#000000"> &#160;&#160;&#160;constructor(name: string, symbol: string, decimals: uint8)</text>
<text text-anchor="start" x="343.8353" y="-897.3" font-family="Times,serif" font-size="14.00" fill="#000000"> &#160;&#160;&#160;name(): string</text>
<text text-anchor="start" x="343.8353" y="-880.5" font-family="Times,serif" font-size="14.00" fill="#000000"> &#160;&#160;&#160;symbol(): string</text>
<text text-anchor="start" x="343.8353" y="-863.7" font-family="Times,serif" font-size="14.00" fill="#000000"> &#160;&#160;&#160;decimals(): uint8</text>
</g>
<!-- 1&#45;&gt;0 -->
<g id="edge7" class="edge">
<title>1&#45;&gt;0</title>
<path fill="none" stroke="#000000" stroke-dasharray="5,2" d="M511.9998,-1047.5868C511.9998,-1153.8621 511.9998,-1326.5114 511.9998,-1451.0708"/>
<polygon fill="none" stroke="#000000" points="501.4999,-1451.2344 511.9998,-1481.2344 522.4999,-1451.2345 501.4999,-1451.2344"/>
</g>
<!-- 7 -->
<g id="node9" class="node">
<title>7</title>
<polygon fill="#f2f2f2" stroke="#000000" points="706.3269,-905.9 706.3269,-997.1 995.6727,-997.1 995.6727,-905.9 706.3269,-905.9"/>
<text text-anchor="middle" x="850.9998" y="-980.5" font-family="Times,serif" font-size="14.00" fill="#000000">ERC20Mintable</text>
<polyline fill="none" stroke="#000000" points="706.3269,-972.3 995.6727,-972.3 "/>
<text text-anchor="middle" x="850.9998" y="-955.7" font-family="Times,serif" font-size="14.00" fill="#000000"> </text>
<polyline fill="none" stroke="#000000" points="706.3269,-947.5 995.6727,-947.5 "/>
<text text-anchor="start" x="714.3269" y="-930.9" font-family="Times,serif" font-size="14.00" fill="#000000">Public:</text>
<text text-anchor="start" x="714.3269" y="-914.1" font-family="Times,serif" font-size="14.00" fill="#000000"> &#160;&#160;&#160;mint(account: address, amount: uint256): bool</text>
</g>
<!-- 7&#45;&gt;6 -->
<g id="edge9" class="edge">
<title>7&#45;&gt;6</title>
<path fill="none" stroke="#000000" d="M930.0097,-997.1189C973.7475,-1022.4975 1029.0166,-1054.773 1077.9998,-1084 1118.6849,-1108.2758 1162.3346,-1134.6876 1203.2794,-1159.6269"/>
<polygon fill="none" stroke="#000000" points="1197.9729,-1168.6893 1229.0522,-1175.3475 1208.9084,-1150.7613 1197.9729,-1168.6893"/>
</g>
<!-- 7&#45;&gt;4 -->
<g id="edge8" class="edge">
<title>7&#45;&gt;4</title>
<path fill="none" stroke="#000000" d="M850.9998,-997.3481C850.9998,-1013.6567 850.9998,-1033.2476 850.9998,-1054.3155"/>
<polygon fill="none" stroke="#000000" points="840.4999,-1054.3399 850.9998,-1084.3399 861.4999,-1054.3399 840.4999,-1054.3399"/>
</g>
<!-- 8 -->
<g id="node10" class="node">
<title>8</title>
<polygon fill="#f2f2f2" stroke="#000000" points="330.3353,-702.1 330.3353,-793.3 703.6643,-793.3 703.6643,-702.1 330.3353,-702.1"/>
<text text-anchor="middle" x="516.9998" y="-776.7" font-family="Times,serif" font-size="14.00" fill="#000000">DappToken</text>
<polyline fill="none" stroke="#000000" points="330.3353,-768.5 703.6643,-768.5 "/>
<text text-anchor="middle" x="516.9998" y="-751.9" font-family="Times,serif" font-size="14.00" fill="#000000"> </text>
<polyline fill="none" stroke="#000000" points="330.3353,-743.7 703.6643,-743.7 "/>
<text text-anchor="start" x="338.3353" y="-727.1" font-family="Times,serif" font-size="14.00" fill="#000000">Public:</text>
<text text-anchor="start" x="338.3353" y="-710.3" font-family="Times,serif" font-size="14.00" fill="#000000"> &#160;&#160;&#160;constructor(_name: string, _symbol: string, _decimals: uint8)</text>
</g>
<!-- 8&#45;&gt;1 -->
<g id="edge11" class="edge">
<title>8&#45;&gt;1</title>
<path fill="none" stroke="#000000" d="M515.8777,-793.4367C515.6376,-803.225 515.3727,-814.0189 515.0977,-825.2308"/>
<polygon fill="none" stroke="#000000" points="504.5945,-825.2341 514.3555,-855.4827 525.5882,-825.7493 504.5945,-825.2341"/>
</g>
<!-- 8&#45;&gt;7 -->
<g id="edge10" class="edge">
<title>8&#45;&gt;7</title>
<path fill="none" stroke="#000000" d="M594.7507,-793.5377C626.546,-812.4151 663.6305,-834.6026 696.9998,-855 715.2058,-866.1287 734.5402,-878.1121 753.1361,-889.7221"/>
<polygon fill="none" stroke="#000000" points="747.7413,-898.7326 778.7394,-905.7587 758.8885,-880.9354 747.7413,-898.7326"/>
</g>
<!-- 9 -->
<g id="node11" class="node">
<title>9</title>
<polygon fill="#f2f2f2" stroke="#000000" points="877.0397,-676.9 877.0397,-818.5 1172.9599,-818.5 1172.9599,-676.9 877.0397,-676.9"/>
<text text-anchor="middle" x="1024.9998" y="-801.9" font-family="Times,serif" font-size="14.00" fill="#000000">&lt;&lt;Library&gt;&gt;</text>
<text text-anchor="middle" x="1024.9998" y="-785.1" font-family="Times,serif" font-size="14.00" fill="#000000">Address</text>
<polyline fill="none" stroke="#000000" points="877.0397,-776.9 1172.9599,-776.9 "/>
<text text-anchor="middle" x="1024.9998" y="-760.3" font-family="Times,serif" font-size="14.00" fill="#000000"> </text>
<polyline fill="none" stroke="#000000" points="877.0397,-752.1 1172.9599,-752.1 "/>
<text text-anchor="start" x="885.0397" y="-735.5" font-family="Times,serif" font-size="14.00" fill="#000000">Internal:</text>
<text text-anchor="start" x="885.0397" y="-718.7" font-family="Times,serif" font-size="14.00" fill="#000000"> &#160;&#160;&#160;isContract(account: address): bool</text>
<text text-anchor="start" x="885.0397" y="-701.9" font-family="Times,serif" font-size="14.00" fill="#000000"> &#160;&#160;&#160;toPayable(account: address): address</text>
<text text-anchor="start" x="885.0397" y="-685.1" font-family="Times,serif" font-size="14.00" fill="#000000"> &#160;&#160;&#160;sendValue(recipient: address, amount: uint256)</text>
</g>
<!-- 10 -->
<g id="node12" class="node">
<title>10</title>
<polygon fill="#f2f2f2" stroke="#000000" points="97.3474,-229.5 97.3474,-639.9 940.6522,-639.9 940.6522,-229.5 97.3474,-229.5"/>
<text text-anchor="middle" x="518.9998" y="-623.3" font-family="Times,serif" font-size="14.00" fill="#000000">DigitalContentContract</text>
<polyline fill="none" stroke="#000000" points="97.3474,-615.1 940.6522,-615.1 "/>
<text text-anchor="start" x="105.3474" y="-598.5" font-family="Times,serif" font-size="14.00" fill="#000000">Public:</text>
<text text-anchor="start" x="105.3474" y="-581.7" font-family="Times,serif" font-size="14.00" fill="#000000"> &#160;&#160;merchant: address</text>
<text text-anchor="start" x="105.3474" y="-564.9" font-family="Times,serif" font-size="14.00" fill="#000000"> &#160;&#160;deliverer: address</text>
<text text-anchor="start" x="105.3474" y="-548.1" font-family="Times,serif" font-size="14.00" fill="#000000"> &#160;&#160;keyAuthority: address</text>
<text text-anchor="start" x="105.3474" y="-531.3" font-family="Times,serif" font-size="14.00" fill="#000000"> &#160;&#160;creator: address</text>
<text text-anchor="start" x="105.3474" y="-514.5" font-family="Times,serif" font-size="14.00" fill="#000000"> &#160;&#160;dcHash: string</text>
<text text-anchor="start" x="105.3474" y="-497.7" font-family="Times,serif" font-size="14.00" fill="#000000"> &#160;&#160;delivererCompensation: uint256</text>
<text text-anchor="start" x="105.3474" y="-480.9" font-family="Times,serif" font-size="14.00" fill="#000000"> &#160;&#160;keyAuthorityCompensation: uint256</text>
<text text-anchor="start" x="105.3474" y="-464.1" font-family="Times,serif" font-size="14.00" fill="#000000"> &#160;&#160;creatorCompensation: uint256</text>
<text text-anchor="start" x="105.3474" y="-447.3" font-family="Times,serif" font-size="14.00" fill="#000000"> &#160;&#160;currentPrice: uint256</text>
<text text-anchor="start" x="105.3474" y="-430.5" font-family="Times,serif" font-size="14.00" fill="#000000"> &#160;&#160;token: DappToken</text>
<polyline fill="none" stroke="#000000" points="97.3474,-422.3 940.6522,-422.3 "/>
<text text-anchor="start" x="105.3474" y="-405.7" font-family="Times,serif" font-size="14.00" fill="#000000">Internal:</text>
<text text-anchor="start" x="105.3474" y="-388.9" font-family="Times,serif" font-size="14.00" fill="#000000"> &#160;&#160;&#160;_issueToken(_buyer: address)</text>
<text text-anchor="start" x="105.3474" y="-372.1" font-family="Times,serif" font-size="14.00" fill="#000000">Public:</text>
<text text-anchor="start" x="105.3474" y="-355.3" font-family="Times,serif" font-size="14.00" fill="#000000"> &#160;&#160;&#160;&lt;&lt;payable&gt;&gt; buy()</text>
<text text-anchor="start" x="105.3474" y="-338.5" font-family="Times,serif" font-size="14.00" fill="#000000"> &#160;&#160;&#160;&lt;&lt;modifier&gt;&gt; onlyMerchant()</text>
<text text-anchor="start" x="105.3474" y="-321.7" font-family="Times,serif" font-size="14.00" fill="#000000"> &#160;&#160;&#160;constructor(_merchant: address, _creator: address, _dcHash: string, _creatorCompensation: uint256, _currentPrice: uint256, _token: DappToken)</text>
<text text-anchor="start" x="105.3474" y="-304.9" font-family="Times,serif" font-size="14.00" fill="#000000"> &#160;&#160;&#160;setDeliverer(_deliverer: address)</text>
<text text-anchor="start" x="105.3474" y="-288.1" font-family="Times,serif" font-size="14.00" fill="#000000"> &#160;&#160;&#160;setDelivererCompensation(_delivererCompensation: uint256)</text>
<text text-anchor="start" x="105.3474" y="-271.3" font-family="Times,serif" font-size="14.00" fill="#000000"> &#160;&#160;&#160;setKeyAuthority(_keyAuthority: address)</text>
<text text-anchor="start" x="105.3474" y="-254.5" font-family="Times,serif" font-size="14.00" fill="#000000"> &#160;&#160;&#160;setKACompensation(_keyAuthorityCompensation: uint256)</text>
<text text-anchor="start" x="105.3474" y="-237.7" font-family="Times,serif" font-size="14.00" fill="#000000"> &#160;&#160;&#160;setCurrentPrice(newPrice: uint256)</text>
</g>
<!-- 10&#45;&gt;3 -->
<g id="edge13" class="edge">
<title>10&#45;&gt;3</title>
<path fill="none" stroke="#000000" stroke-dasharray="5,2" d="M686.898,-639.938C753.9395,-717.364 825.2327,-793.059 867.9998,-819 921.8276,-851.65 959.349,-811.6473 1004.9998,-855 1196.593,-1036.9483 1176.0516,-1199.6452 1077.9998,-1445 1072.9787,-1457.5643 1066.4274,-1469.6992 1058.8723,-1481.279"/>
<polygon fill="#000000" stroke="#000000" points="1055.9345,-1479.3748 1053.2011,-1489.611 1061.7213,-1483.3136 1055.9345,-1479.3748"/>
</g>
<!-- 10&#45;&gt;8 -->
<g id="edge14" class="edge">
<title>10&#45;&gt;8</title>
<path fill="none" stroke="#000000" d="M517.6881,-639.9832C517.569,-658.6141 517.4565,-676.2202 517.3583,-691.5907"/>
<polygon fill="#000000" stroke="#000000" points="513.8568,-691.8376 517.2927,-701.8598 520.8566,-691.8824 513.8568,-691.8376"/>
</g>
<!-- 10&#45;&gt;9 -->
<g id="edge12" class="edge">
<title>10&#45;&gt;9</title>
<path fill="none" stroke="#000000" stroke-dasharray="5,2" d="M850.8633,-639.9832C868.4667,-650.8722 885.5042,-661.4112 901.5849,-671.3584"/>
<polygon fill="#000000" stroke="#000000" points="900.072,-674.538 910.4177,-676.8221 903.7545,-668.5849 900.072,-674.538"/>
</g>
<!-- 11 -->
<g id="node13" class="node">
<title>11</title>
<polygon fill="#f2f2f2" stroke="#000000" points="958.5628,-313.5 958.5628,-555.9 1443.4368,-555.9 1443.4368,-313.5 958.5628,-313.5"/>
<text text-anchor="middle" x="1200.9998" y="-539.3" font-family="Times,serif" font-size="14.00" fill="#000000">Ownable</text>
<polyline fill="none" stroke="#000000" points="958.5628,-531.1 1443.4368,-531.1 "/>
<text text-anchor="start" x="966.5628" y="-514.5" font-family="Times,serif" font-size="14.00" fill="#000000">Private:</text>
<text text-anchor="start" x="966.5628" y="-497.7" font-family="Times,serif" font-size="14.00" fill="#000000"> &#160;&#160;_owner: address</text>
<polyline fill="none" stroke="#000000" points="958.5628,-489.5 1443.4368,-489.5 "/>
<text text-anchor="start" x="966.5628" y="-472.9" font-family="Times,serif" font-size="14.00" fill="#000000">Internal:</text>
<text text-anchor="start" x="966.5628" y="-456.1" font-family="Times,serif" font-size="14.00" fill="#000000"> &#160;&#160;&#160;_transferOwnership(newOwner: address)</text>
<text text-anchor="start" x="966.5628" y="-439.3" font-family="Times,serif" font-size="14.00" fill="#000000">Public:</text>
<text text-anchor="start" x="966.5628" y="-422.5" font-family="Times,serif" font-size="14.00" fill="#000000"> &#160;&#160;&#160;&lt;&lt;event&gt;&gt; OwnershipTransferred(previousOwner: address, newOwner: address)</text>
<text text-anchor="start" x="966.5628" y="-405.7" font-family="Times,serif" font-size="14.00" fill="#000000"> &#160;&#160;&#160;&lt;&lt;modifier&gt;&gt; onlyOwner()</text>
<text text-anchor="start" x="966.5628" y="-388.9" font-family="Times,serif" font-size="14.00" fill="#000000"> &#160;&#160;&#160;constructor()</text>
<text text-anchor="start" x="966.5628" y="-372.1" font-family="Times,serif" font-size="14.00" fill="#000000"> &#160;&#160;&#160;owner(): address</text>
<text text-anchor="start" x="966.5628" y="-355.3" font-family="Times,serif" font-size="14.00" fill="#000000"> &#160;&#160;&#160;isOwner(): bool</text>
<text text-anchor="start" x="966.5628" y="-338.5" font-family="Times,serif" font-size="14.00" fill="#000000"> &#160;&#160;&#160;renounceOwnership()</text>
<text text-anchor="start" x="966.5628" y="-321.7" font-family="Times,serif" font-size="14.00" fill="#000000"> &#160;&#160;&#160;transferOwnership(newOwner: address)</text>
</g>
<!-- 11&#45;&gt;2 -->
<g id="edge15" class="edge">
<title>11&#45;&gt;2</title>
<path fill="none" stroke="#000000" d="M1201.3117,-556.1173C1201.9057,-787.4078 1203.1895,-1287.2042 1203.7402,-1501.6383"/>
<polygon fill="none" stroke="#000000" points="1193.2404,-1501.7629 1203.8175,-1531.7358 1214.2403,-1501.7089 1193.2404,-1501.7629"/>
</g>
<!-- 12 -->
<g id="node14" class="node">
<title>12</title>
<polygon fill="#f2f2f2" stroke="#000000" points="845.2328,-.5 845.2328,-192.5 1556.7668,-192.5 1556.7668,-.5 845.2328,-.5"/>
<text text-anchor="middle" x="1200.9998" y="-175.9" font-family="Times,serif" font-size="14.00" fill="#000000">ContentContractFactory</text>
<polyline fill="none" stroke="#000000" points="845.2328,-167.7 1556.7668,-167.7 "/>
<text text-anchor="start" x="853.2328" y="-151.1" font-family="Times,serif" font-size="14.00" fill="#000000">Private:</text>
<text text-anchor="start" x="853.2328" y="-134.3" font-family="Times,serif" font-size="14.00" fill="#000000"> &#160;&#160;_token: DappToken</text>
<text text-anchor="start" x="853.2328" y="-117.5" font-family="Times,serif" font-size="14.00" fill="#000000">Public:</text>
<text text-anchor="start" x="853.2328" y="-100.7" font-family="Times,serif" font-size="14.00" fill="#000000"> &#160;&#160;deployedContracts: address[]</text>
<polyline fill="none" stroke="#000000" points="845.2328,-92.5 1556.7668,-92.5 "/>
<text text-anchor="start" x="853.2328" y="-75.9" font-family="Times,serif" font-size="14.00" fill="#000000">Public:</text>
<text text-anchor="start" x="853.2328" y="-59.1" font-family="Times,serif" font-size="14.00" fill="#000000"> &#160;&#160;&#160;constructor(_name: string, _symbol: string, _decimals: uint8)</text>
<text text-anchor="start" x="853.2328" y="-42.3" font-family="Times,serif" font-size="14.00" fill="#000000"> &#160;&#160;&#160;deployContentContract(merchant: address, dcHash: string, creatorCompensation: uint256, currentPrice: uint256): address</text>
<text text-anchor="start" x="853.2328" y="-25.5" font-family="Times,serif" font-size="14.00" fill="#000000"> &#160;&#160;&#160;getContractsByAddress(): address[]</text>
<text text-anchor="start" x="853.2328" y="-8.7" font-family="Times,serif" font-size="14.00" fill="#000000"> &#160;&#160;&#160;tokenAddress(): address</text>
</g>
<!-- 12&#45;&gt;8 -->
<g id="edge17" class="edge">
<title>12&#45;&gt;8</title>
<path fill="none" stroke="#000000" d="M845.0437,-115.527C538.7355,-135.6414 138.2705,-172.3897 87.9998,-229 -33.4086,-365.719 -24.517,-496.2748 87.9998,-640.4 117.7173,-678.4658 221.8294,-705.0314 320.0408,-722.2069"/>
<polygon fill="#000000" stroke="#000000" points="319.6867,-725.6974 330.1354,-723.9434 320.8735,-718.7987 319.6867,-725.6974"/>
</g>
<!-- 12&#45;&gt;10 -->
<g id="edge18" class="edge">
<title>12&#45;&gt;10</title>
<path fill="none" stroke="#000000" stroke-dasharray="5,2" d="M1007.3902,-192.5099C986.3569,-202.9402 964.3973,-213.8299 941.9333,-224.9696"/>
<polygon fill="#000000" stroke="#000000" points="940.3658,-221.8402 932.9618,-229.4185 943.4757,-228.1114 940.3658,-221.8402"/>
</g>
<!-- 12&#45;&gt;11 -->
<g id="edge16" class="edge">
<title>12&#45;&gt;11</title>
<path fill="none" stroke="#000000" d="M1200.9998,-192.5099C1200.9998,-220.7044 1200.9998,-252.2557 1200.9998,-283.0289"/>
<polygon fill="none" stroke="#000000" points="1190.4999,-283.3895 1200.9998,-313.3895 1211.4999,-283.3895 1190.4999,-283.3895"/>
</g>
</g>
</svg>
